<svg width="32" height="32" viewBox="0 0 32 32" fill="none" xmlns="http://www.w3.org/2000/svg">
    <path d="M5 29.75c2.757 0 5-2.243 5-5s-2.243-5-5-5-5 2.243-5 5 2.243 5 5 5zm0-7.5c1.378 0 2.5 1.122 2.5 2.5s-1.122 2.5-2.5 2.5a2.503 2.503 0 0 1-2.5-2.5c0-1.378 1.122-2.5 2.5-2.5zM27 19.75c-2.757 0-5 2.243-5 5s2.243 5 5 5 5-2.243 5-5-2.243-5-5-5zm0 7.5a2.503 2.503 0 0 1-2.5-2.5c0-1.378 1.122-2.5 2.5-2.5s2.5 1.122 2.5 2.5-1.122 2.5-2.5 2.5z" fill="#292929"/>
    <path d="M4.149 17.298c.28-.032.567-.048.851-.048 3.34 0 6.16 2.272 7.02 5.653.116.454.317.885.418 1.046.702 1.246 1.993 2.051 3.42 2.051h.343c.906 0 1.752-.313 2.447-.906a4.148 4.148 0 0 0 1.326-2.167c.733-2.922 3.226-5.173 6.204-5.6a1.25 1.25 0 1 0-.356-2.475 9.947 9.947 0 0 0-5.284 2.491 9.975 9.975 0 0 0-2.989 4.976c-.147.588-.621 1.181-1.348 1.181h-.342c-.439 0-.837-.214-1.109-.57V16A6.257 6.257 0 0 0 8.5 9.75H3.75C1.642 9.75 0 11.492 0 13.449v.051c0 2.141 1.878 4.055 4.149 3.798zM3.75 12.25H8.5A3.754 3.754 0 0 1 12.25 16v2.047A9.525 9.525 0 0 0 5 14.75c-.378 0-.759.021-1.133.064-.73.083-1.352-.592-1.367-1.34a1.251 1.251 0 0 1 1.25-1.224zM30.75 4.75h-2.5a3.73 3.73 0 0 0-1.382.265A3.756 3.756 0 0 0 23.25 2.25h-2.5a1.25 1.25 0 1 0 0 2.5h2.5c.69 0 1.25.56 1.25 1.25v2.5a3.754 3.754 0 0 0 3.75 3.75h2.5c.69 0 1.25-.56 1.25-1.25V6c0-.69-.56-1.25-1.25-1.25zm-1.25 5h-1.25c-.69 0-1.25-.56-1.25-1.25s.56-1.25 1.25-1.25h1.25v2.5z" fill="#292929"/>
    <path d="M22.115 11.927a1.25 1.25 0 0 0-1.68-.55 14.928 14.928 0 0 0-2.896 1.925 1.25 1.25 0 1 0 1.617 1.907 12.427 12.427 0 0 1 2.41-1.602 1.25 1.25 0 0 0 .549-1.68z" fill="#292929"/>
</svg>
