<svg width="22" height="22" viewBox="0 0 22 22" fill="none" xmlns="http://www.w3.org/2000/svg">
<path d="M10.2151 1.57129C10.0067 1.57129 9.80683 1.65407 9.65948 1.80142C9.51213 1.94877 9.42935 2.14862 9.42935 2.357C9.42935 2.56539 9.51213 2.76524 9.65948 2.91259C9.80683 3.05994 10.0067 3.14272 10.2151 3.14272H14.1429V5.107C14.1429 5.75758 13.8946 6.22036 13.5143 6.53465C13.1167 6.86229 12.5204 7.07129 11.7857 7.07129C11.5773 7.07129 11.3775 7.15407 11.2301 7.30142C11.0828 7.44877 11 7.64862 11 7.857C11 8.06539 11.0828 8.26524 11.2301 8.41259C11.3775 8.55994 11.5773 8.64272 11.7857 8.64272C12.8032 8.64272 13.7791 8.35436 14.5153 7.74622C15.2664 7.12393 15.7143 6.21172 15.7143 5.107V2.357C15.7143 2.14862 15.6315 1.94877 15.4841 1.80142C15.3368 1.65407 15.1369 1.57129 14.9286 1.57129H10.2151ZM8.58628 5.98307C8.52708 5.83897 8.42638 5.71571 8.29697 5.62897C8.16756 5.54222 8.01529 5.49591 7.85949 5.49591C7.7037 5.49591 7.55142 5.54222 7.42202 5.62897C7.29261 5.71571 7.1919 5.83897 7.13271 5.98307L1.63114 19.3434C1.55174 19.5361 1.55217 19.7525 1.63233 19.945C1.71249 20.1374 1.86581 20.2901 2.05857 20.3695C2.25132 20.4489 2.46772 20.4485 2.66016 20.3683C2.8526 20.2882 3.00531 20.1348 3.08471 19.9421L4.50449 16.4928H11.2145L12.6343 19.9421C12.6736 20.0375 12.7313 20.1243 12.8042 20.1974C12.877 20.2706 12.9635 20.3286 13.0588 20.3683C13.1541 20.408 13.2563 20.4285 13.3595 20.4287C13.4627 20.4289 13.565 20.4088 13.6604 20.3695C13.7559 20.3302 13.8426 20.2725 13.9158 20.1996C13.9889 20.1268 14.047 20.0402 14.0867 19.945C14.1263 19.8497 14.1469 19.7475 14.1471 19.6443C14.1473 19.5411 14.1272 19.4388 14.0879 19.3434L12.5479 15.6034C12.53 15.4689 12.4775 15.3413 12.3954 15.2333L8.58628 5.98307ZM10.5671 14.9221H5.15114L7.85949 8.34572L10.5671 14.9221ZM17.2857 1.57129C17.4941 1.57129 17.6939 1.65407 17.8413 1.80142C17.9886 1.94877 18.0714 2.14862 18.0714 2.357V6.28557H19.6429C19.8512 6.28557 20.0511 6.36836 20.1984 6.51571C20.3458 6.66306 20.4286 6.86291 20.4286 7.07129C20.4286 7.27967 20.3458 7.47952 20.1984 7.62687C20.0511 7.77422 19.8512 7.857 19.6429 7.857H18.0714V14.9284C18.0714 15.1368 17.9886 15.3367 17.8413 15.484C17.6939 15.6314 17.4941 15.7141 17.2857 15.7141C17.0773 15.7141 16.8775 15.6314 16.7301 15.484C16.5828 15.3367 16.5 15.1368 16.5 14.9284V2.357C16.5 2.14862 16.5828 1.94877 16.7301 1.80142C16.8775 1.65407 17.0773 1.57129 17.2857 1.57129Z" fill="black"/>
</svg>
