<svg width="21" height="21" viewBox="0 0 21 21" fill="none" xmlns="http://www.w3.org/2000/svg">
<path d="M19.355 9.43944C19.2705 7.22199 18.3301 5.12356 16.7314 3.58457C15.1326 2.04565 12.9999 1.18604 10.7807 1.18604C8.56168 1.18604 6.42915 2.04568 4.8303 3.58457C3.23144 5.12345 2.29115 7.22199 2.20653 9.43944C1.8488 9.59687 1.54425 9.85478 1.33002 10.1819C1.11595 10.509 1.00125 10.8912 1 11.2821V13.5457C1 14.0808 1.21254 14.5938 1.59073 14.9722C1.96904 15.3505 2.48226 15.563 3.01715 15.563C3.36318 15.563 3.695 15.4258 3.93987 15.1815C4.18485 14.9371 4.32278 14.6057 4.32364 14.2596V10.5713C4.32197 10.2483 4.20059 9.93752 3.9829 9.69906C3.76506 9.46049 3.4665 9.31141 3.14509 9.28052C3.22485 7.3079 4.06446 5.44283 5.48825 4.07524C6.91219 2.70782 8.80979 1.9442 10.784 1.9442C12.7582 1.9442 14.6559 2.70782 16.0795 4.07524C17.5034 5.4428 18.343 7.30798 18.4228 9.28052C18.1015 9.31142 17.8034 9.46063 17.5861 9.6992C17.369 9.93778 17.2481 10.2486 17.2473 10.5713V14.2596C17.2493 14.5855 17.3727 14.8987 17.5936 15.1381C17.8145 15.3774 18.117 15.5256 18.4414 15.5535V16.4889C18.4406 16.993 18.24 17.4765 17.8836 17.833C17.527 18.1894 17.0437 18.39 16.5395 18.3908H15.1116C15.0475 18.1926 14.9411 18.0107 14.7998 17.8577C14.5349 17.5913 14.1745 17.4421 13.799 17.4431H12.3366C12.1319 17.4419 11.9295 17.4866 11.7442 17.574C11.3537 17.7572 11.068 18.1085 10.9683 18.5283C10.8686 18.948 10.9658 19.3903 11.2322 19.7297C11.4986 20.0689 11.9053 20.2682 12.3367 20.271H13.7895C14.0806 20.27 14.3642 20.1798 14.6023 20.0125C14.8404 19.8452 15.0214 19.609 15.1209 19.3356H16.5302C17.2824 19.3348 18.0037 19.0355 18.5356 18.5037C19.0676 17.9717 19.3667 17.2505 19.3675 16.4983V15.3945C19.7227 15.2357 20.0245 14.9777 20.2365 14.6513C20.4484 14.3249 20.5612 13.9442 20.5617 13.555V11.282C20.56 10.8911 20.4452 10.5092 20.2311 10.1821C20.0169 9.85514 19.7127 9.59722 19.355 9.43936L19.355 9.43944ZM3.38819 10.5712V14.2596C3.38652 14.4634 3.22088 14.6276 3.01711 14.6276C2.73023 14.6276 2.45507 14.5136 2.2521 14.3107C2.0493 14.1077 1.9353 13.8326 1.9353 13.5457V11.282C1.93614 10.9954 2.05027 10.7206 2.25308 10.518C2.45574 10.3152 2.73049 10.2011 3.01708 10.2002C3.22128 10.2019 3.38649 10.367 3.38817 10.5712L3.38819 10.5712ZM14.2509 18.9553C14.2039 19.1764 14.0092 19.3347 13.7832 19.3357H12.3365C12.0713 19.3357 11.8562 19.1207 11.8562 18.8555C11.8562 18.5903 12.0713 18.3753 12.3365 18.3753H13.7893C13.9174 18.3753 14.04 18.4271 14.1292 18.5188C14.2197 18.6075 14.2702 18.7288 14.2696 18.8555C14.2666 18.8893 14.2604 18.9227 14.2509 18.9553L14.2509 18.9553ZM19.6198 13.5459C19.6198 13.8327 19.5058 14.1079 19.303 14.3109C19.1 14.5138 18.8248 14.6278 18.538 14.6278C18.3342 14.6278 18.1686 14.4636 18.1669 14.2598V10.5714C18.1685 10.3672 18.3338 10.2021 18.538 10.2005C18.8246 10.2013 19.0993 10.3154 19.302 10.5182C19.5048 10.7209 19.6189 10.9957 19.6197 11.2823L19.6198 13.5459Z" fill="black"/>
<path d="M13.8052 13.7078C14.3306 13.7078 14.8345 13.4993 15.2063 13.1281C15.578 12.7568 15.7874 12.2532 15.7882 11.7279V7.67467C15.7882 7.14894 15.5791 6.64495 15.2072 6.27358C14.8352 5.90221 14.3309 5.69397 13.8051 5.69483H7.75036C7.22491 5.69483 6.72102 5.9032 6.34926 6.27443C5.97747 6.64566 5.76812 7.14926 5.7673 7.67471V11.728C5.76814 12.2533 5.97748 12.7569 6.34926 13.1281C6.72104 13.4993 7.22491 13.7079 7.75036 13.7079H7.7878L7.78766 14.771C7.78682 14.9645 7.84389 15.1538 7.95177 15.3144C8.05964 15.475 8.21317 15.5996 8.39258 15.6721C8.5695 15.7448 8.76409 15.7629 8.95145 15.724C9.13867 15.6852 9.30999 15.591 9.44337 15.4539L11.1831 13.7235L13.8052 13.7078ZM10.6593 12.9002L8.78856 14.771C8.78856 14.771 8.78856 14.7866 8.75738 14.771C8.74263 14.7665 8.7333 14.7519 8.73553 14.7367V13.2401C8.73553 12.9818 8.52618 12.7724 8.26784 12.7724H7.75035C7.47294 12.7724 7.20694 12.6625 7.01067 12.4666C6.81428 12.2708 6.70348 12.0052 6.70264 11.728V7.67471C6.70348 7.3973 6.81428 7.13173 7.01067 6.93589C7.20693 6.74005 7.47294 6.63023 7.75035 6.63023H13.8051C14.0825 6.63023 14.3485 6.74005 14.5448 6.93589C14.7412 7.13174 14.852 7.39731 14.8528 7.67471V11.728C14.852 12.0052 14.7412 12.2708 14.5448 12.4666C14.3485 12.6625 14.0825 12.7724 13.8051 12.7724H10.999C10.8732 12.7674 10.7507 12.8136 10.6592 12.9002L10.6593 12.9002Z" fill="black"/>
<path d="M10.7778 9.09375C10.595 9.09375 10.4198 9.16627 10.2906 9.29558C10.1613 9.42475 10.0888 9.59999 10.0888 9.78275C10.0888 9.96552 10.1613 10.1408 10.2906 10.2699C10.4198 10.3992 10.595 10.4718 10.7778 10.4718C10.9605 10.4718 11.1358 10.3992 11.265 10.2699C11.3943 10.1408 11.4668 9.96552 11.4668 9.78275C11.4668 9.59999 11.3943 9.42475 11.265 9.29558C11.1358 9.16627 10.9605 9.09375 10.7778 9.09375Z" fill="black"/>
</svg>
