<svg width="21" height="22" viewBox="0 0 21 22" fill="none" xmlns="http://www.w3.org/2000/svg">
    <path
        d="M20.8509 11.0896C20.8509 10.2182 20.782 9.58222 20.6331 8.92273H10.9478V12.8561H16.6328C16.5183 13.8336 15.8993 15.3058 14.5238 16.295L14.5046 16.4266L17.5669 18.8642L17.7791 18.8859C19.7275 17.0369 20.8509 14.3165 20.8509 11.0896Z"
        fill="white" />
    <path
        d="M10.9474 21.4532C13.7326 21.4532 16.0708 20.511 17.7787 18.8858L14.5234 16.2949C13.6524 16.919 12.4832 17.3548 10.9474 17.3548C8.21943 17.3548 5.90414 15.5059 5.0788 12.9503L4.95782 12.9609L1.77358 15.4929L1.73193 15.6118C3.42828 19.0742 6.91272 21.4532 10.9474 21.4532Z"
        fill="white" />
    <path
        d="M5.07902 12.9504C4.86125 12.2909 4.73522 11.5842 4.73522 10.8541C4.73522 10.1239 4.86125 9.41732 5.06756 8.75783L5.0618 8.61737L1.83764 6.04468L1.73215 6.09623C1.03301 7.53302 0.631836 9.14648 0.631836 10.8541C0.631836 12.5617 1.03301 14.1751 1.73215 15.6119L5.07902 12.9504"
        fill="white" />
    <path
        d="M10.9478 4.35331C12.8849 4.35331 14.1915 5.21301 14.9366 5.93145L17.8479 3.01078C16.0599 1.30315 13.733 0.255005 10.9478 0.255005C6.9132 0.255005 3.42877 2.6339 1.73242 6.09626L5.06783 8.75786C5.90463 6.20229 8.21992 4.35331 10.9478 4.35331"
        fill="white" />
</svg>
    