<svg width="600" height="873" viewBox="0 0 600 873" fill="none" xmlns="http://www.w3.org/2000/svg">
<path fill-rule="evenodd" clip-rule="evenodd" d="M597.973 861.931C600 857.953 600 852.745 600 842.33V670.219C585.34 670.219 573.456 658.332 573.456 643.67C573.456 629.008 585.34 617.122 600 617.122L600 29.756C600 19.3414 600 14.1341 597.973 10.1556C596.191 6.65532 593.346 3.81257 589.847 2.02589C585.87 0.00010382 580.663 4.85292e-05 570.249 4.85292e-05L29.7513 4.85292e-05C19.3377 4.85292e-05 14.1305 0.00010382 10.1526 2.02589C6.65418 3.81257 3.8092 6.65532 2.02678 10.1556C-3.41789e-05 14.1341 -1.01328e-05 19.3414 -1.01328e-05 29.756L-1.01328e-05 617.122C14.6598 617.122 26.5444 629.008 26.5444 643.67C26.5444 658.332 14.6598 670.219 -1.01328e-05 670.219V842.33C-1.01328e-05 852.745 -3.41789e-05 857.953 2.02678 861.931C3.8092 865.431 6.65418 868.276 10.1526 870.059C14.1305 872.086 19.3377 872.086 29.7513 872.086L570.249 872.086C580.663 872.086 585.87 872.086 589.847 870.059C593.346 868.276 596.191 865.431 597.973 861.931ZM521.053 628.643C512.756 628.643 506.028 635.371 506.028 643.67C506.028 651.969 512.756 658.698 521.053 658.698C529.352 658.698 536.079 651.969 536.079 643.67C536.079 635.371 529.352 628.643 521.053 628.643ZM453.256 643.67C453.256 635.371 459.982 628.643 468.281 628.643C476.578 628.643 483.306 635.371 483.306 643.67C483.306 651.969 476.578 658.698 468.281 658.698C459.982 658.698 453.256 651.969 453.256 643.67ZM412.187 628.643C403.889 628.643 397.162 635.371 397.162 643.67C397.162 651.969 403.889 658.698 412.187 658.698C420.485 658.698 427.212 651.969 427.212 643.67C427.212 635.371 420.485 628.643 412.187 628.643ZM341.068 643.67C341.068 635.371 347.796 628.643 356.094 628.643C364.392 628.643 371.119 635.371 371.119 643.67C371.119 651.969 364.392 658.698 356.094 658.698C347.796 658.698 341.068 651.969 341.068 643.67ZM300 628.643C291.702 628.643 284.975 635.371 284.975 643.67C284.975 651.969 291.702 658.698 300 658.698C308.298 658.698 315.025 651.969 315.025 643.67C315.025 635.371 308.298 628.643 300 628.643ZM228.881 643.67C228.881 635.371 235.609 628.643 243.906 628.643C252.205 628.643 258.932 635.371 258.932 643.67C258.932 651.969 252.205 658.698 243.906 658.698C235.609 658.698 228.881 651.969 228.881 643.67ZM187.813 628.643C179.515 628.643 172.788 635.371 172.788 643.67C172.788 651.969 179.515 658.698 187.813 658.698C196.111 658.698 202.838 651.969 202.838 643.67C202.838 635.371 196.111 628.643 187.813 628.643ZM116.695 643.67C116.695 635.371 123.422 628.643 131.719 628.643C140.018 628.643 146.744 635.371 146.744 643.67C146.744 651.969 140.018 658.698 131.719 658.698C123.422 658.698 116.695 651.969 116.695 643.67ZM75.6262 628.643C67.3277 628.643 60.6011 635.371 60.6011 643.67C60.6011 651.969 67.3277 658.698 75.6262 658.698C83.924 658.698 90.6512 651.969 90.6512 643.67C90.6512 635.371 83.924 628.643 75.6262 628.643Z" fill="white"/>
</svg>
