<svg width="14" height="12" viewBox="0 0 14 12" fill="none" xmlns="http://www.w3.org/2000/svg">
<path fill-rule="evenodd" clip-rule="evenodd" d="M5.82405 1.33333C5.57153 1.33333 5.34069 1.476 5.22776 1.70186L4.96481 2.22776C4.62603 2.90533 3.9335 3.33333 3.17596 3.33333H2.33334C1.96515 3.33333 1.66667 3.63181 1.66667 4V10C1.66667 10.3682 1.96515 10.6667 2.33334 10.6667H11.6667C12.0349 10.6667 12.3333 10.3682 12.3333 10V4C12.3333 3.63181 12.0349 3.33333 11.6667 3.33333H10.824C10.0665 3.33333 9.37398 2.90533 9.03519 2.22776L8.77224 1.70186C8.65931 1.476 8.42847 1.33333 8.17596 1.33333H5.82405ZM4.03519 1.10557C4.37398 0.428004 5.0665 0 5.82405 0H8.17596C8.9335 0 9.62603 0.428005 9.96481 1.10557L10.2278 1.63148C10.3407 1.85733 10.5715 2 10.824 2H11.6667C12.7712 2 13.6667 2.89543 13.6667 4V10C13.6667 11.1046 12.7712 12 11.6667 12H2.33334C1.22877 12 0.333336 11.1046 0.333336 10V4C0.333336 2.89543 1.22877 2 2.33334 2H3.17596C3.42847 2 3.65931 1.85733 3.77224 1.63148L4.03519 1.10557Z" fill="black"/>
<path fill-rule="evenodd" clip-rule="evenodd" d="M7 4.66683C5.89544 4.66683 5.00001 5.56226 5.00001 6.66683C5.00001 7.7714 5.89544 8.66683 7 8.66683C8.10457 8.66683 9 7.7714 9 6.66683C9 5.56226 8.10457 4.66683 7 4.66683ZM3.66667 6.66683C3.66667 4.82588 5.15906 3.3335 7 3.3335C8.84095 3.3335 10.3333 4.82588 10.3333 6.66683C10.3333 8.50778 8.84095 10.0002 7 10.0002C5.15906 10.0002 3.66667 8.50778 3.66667 6.66683Z" fill="black"/>
</svg>
