<svg width="24" height="24" viewBox="0 0 24 24" fill="none" xmlns="http://www.w3.org/2000/svg">
<path d="M6.20176 20.4666H12.8342C13.4745 20.4666 13.9777 19.9635 13.9777 19.3231C13.9777 18.6827 13.4745 18.1796 12.8342 18.1796H6.20176C5.69862 18.1796 5.28703 17.768 5.28703 17.2649V7.20192C5.28703 6.69878 5.69862 6.28719 6.20176 6.28719H12.8342C13.4745 6.28719 13.9777 5.78404 13.9777 5.14368C13.9777 4.50331 13.4745 4.00016 12.8342 4.00016L6.20176 4C4.44071 4 3 5.44087 3 7.20176V17.2647C3 19.0259 4.44071 20.4668 6.20176 20.4668V20.4666Z" fill="black"/>
<path d="M17.6369 7.88746C17.1796 7.43009 16.4706 7.43009 16.0131 7.88746C15.5557 8.34482 15.5557 9.0538 16.0131 9.51133L17.6139 11.1122L9.1748 11.1121C8.53443 11.1121 8.03128 11.6152 8.03128 12.2556C8.03128 12.8959 8.53443 13.3991 9.1748 13.3991H17.3852L16.0129 14.7714C15.5556 15.2288 15.5556 15.9377 16.0129 16.3953C16.2417 16.624 16.5389 16.7383 16.8135 16.7383C17.0879 16.7383 17.431 16.5781 17.6368 16.3495L21.0674 12.9189C21.5247 12.4616 21.5247 11.7526 21.0674 11.2951L17.6369 7.88746Z" fill="black"/>
</svg>
