<svg width="22" height="17" viewBox="0 0 22 17" fill="none" xmlns="http://www.w3.org/2000/svg">
<path fill-rule="evenodd" clip-rule="evenodd" d="M14.1613 2.5625C15.6557 2.5625 16.8672 3.77396 16.8672 5.26838C16.8672 6.7628 15.6557 7.97426 14.1613 7.97426V9.97427C16.7603 9.97427 18.8672 7.86737 18.8672 5.26838C18.8672 2.66939 16.7603 0.5625 14.1613 0.5625V2.5625Z" fill="black"/>
<path fill-rule="evenodd" clip-rule="evenodd" d="M14.1618 9.97412C17.2481 9.97412 19.75 12.4761 19.75 15.5624H21.75C21.75 11.3715 18.3526 7.97412 14.1618 7.97412V9.97412Z" fill="black"/>
<path fill-rule="evenodd" clip-rule="evenodd" d="M8.25 2.5625C9.87234 2.5625 11.1875 3.87766 11.1875 5.5C11.1875 7.12234 9.87234 8.4375 8.25 8.4375C6.62766 8.4375 5.3125 7.12234 5.3125 5.5C5.3125 3.87766 6.62766 2.5625 8.25 2.5625ZM13.1875 5.5C13.1875 2.77309 10.9769 0.5625 8.25 0.5625C5.52309 0.5625 3.3125 2.77309 3.3125 5.5C3.3125 8.22691 5.52309 10.4375 8.25 10.4375C10.9769 10.4375 13.1875 8.22691 13.1875 5.5Z" fill="black"/>
<path fill-rule="evenodd" clip-rule="evenodd" d="M8.25 10.4375C11.5637 10.4375 14.25 13.1238 14.25 16.4375H16.25C16.25 12.0192 12.6683 8.4375 8.25 8.4375C3.83172 8.4375 0.25 12.0192 0.25 16.4375H2.25C2.25 13.1238 4.93629 10.4375 8.25 10.4375Z" fill="black"/>
</svg>
