<svg width="22" height="22" viewBox="0 0 22 22" fill="none" xmlns="http://www.w3.org/2000/svg">
<path fill-rule="evenodd" clip-rule="evenodd" d="M11 15C11 14.4477 11.4477 14 12 14H21C21.5523 14 22 14.4477 22 15V21C22 21.5523 21.5523 22 21 22H12C11.4477 22 11 21.5523 11 21V15ZM13 16V20H20V16H13Z" fill="black"/>
<path fill-rule="evenodd" clip-rule="evenodd" d="M11 15C11 14.4477 11.4477 14 12 14H21C21.5523 14 22 14.4477 22 15V17C22 17.4687 21.6745 17.8745 21.2169 17.9762L16.7169 18.9762C16.5741 19.0079 16.4259 19.0079 16.2831 18.9762L11.7831 17.9762C11.3255 17.8745 11 17.4687 11 17V15ZM13 16V16.1978L16.5 16.9756L20 16.1978V16H13Z" fill="black"/>
<path fill-rule="evenodd" clip-rule="evenodd" d="M16 13C15.4477 13 15 13.4477 15 14H18C18 13.4477 17.5523 13 17 13H16ZM13 14C13 12.3431 14.3431 11 16 11H17C18.6569 11 20 12.3431 20 14V15C20 15.5523 19.5523 16 19 16H14C13.4477 16 13 15.5523 13 15V14Z" fill="black"/>
<path fill-rule="evenodd" clip-rule="evenodd" d="M4 2C2.89543 2 2 2.89543 2 4V18C2 19.1046 2.89543 20 4 20H9V22H4C1.79086 22 0 20.2091 0 18V4C0 1.79086 1.79086 0 4 0H11C11.2652 0 11.5196 0.105357 11.7071 0.292893L17.7071 6.29289C17.8946 6.48043 18 6.73478 18 7V9H16V7.41421L10.5858 2H4Z" fill="black"/>
<path fill-rule="evenodd" clip-rule="evenodd" d="M10.6173 0.0761497C10.991 -0.0786313 11.4211 0.00692445 11.7071 0.292922L17.7071 6.29292C17.9931 6.57892 18.0787 7.00904 17.9239 7.38271C17.7691 7.75639 17.4045 8.00003 17 8.00003H14C11.7909 8.00003 10 6.20917 10 4.00003V1.00003C10 0.595567 10.2436 0.230931 10.6173 0.0761497ZM12 3.41424V4.00003C12 5.1046 12.8954 6.00003 14 6.00003H14.5858L12 3.41424Z" fill="black"/>
<path fill-rule="evenodd" clip-rule="evenodd" d="M8 7L5 7L5 5L8 5V7Z" fill="black"/>
<path fill-rule="evenodd" clip-rule="evenodd" d="M10 12H5V10H10V12Z" fill="black"/>
<path fill-rule="evenodd" clip-rule="evenodd" d="M8 17H5V15H8V17Z" fill="black"/>
</svg>
