<svg width="20" height="20" viewBox="0 0 20 20" fill="none" xmlns="http://www.w3.org/2000/svg">
<path fill-rule="evenodd" clip-rule="evenodd" d="M7.5 1C7.5 0.447715 7.94772 0 8.5 0H11.5C12.0523 0 12.5 0.447715 12.5 1V2.39866C12.8826 2.52443 13.2524 2.67822 13.6069 2.85756L14.5962 1.86827C14.9867 1.47775 15.6199 1.47775 16.0104 1.86827L18.1317 3.98959C18.3193 4.17713 18.4246 4.43148 18.4246 4.6967C18.4246 4.96192 18.3193 5.21627 18.1317 5.40381L17.1424 6.3931C17.3218 6.74763 17.4756 7.11741 17.6013 7.5H19C19.5523 7.5 20 7.94772 20 8.5V11.5C20 12.0523 19.5523 12.5 19 12.5H17.6013C17.4756 12.8826 17.3218 13.2524 17.1424 13.6069L18.1317 14.5962C18.5223 14.9867 18.5223 15.6199 18.1317 16.0104L16.0104 18.1317C15.6199 18.5223 14.9867 18.5223 14.5962 18.1317L13.6069 17.1424C13.2524 17.3218 12.8826 17.4756 12.5 17.6013V19C12.5 19.5523 12.0523 20 11.5 20H8.5C7.94772 20 7.5 19.5523 7.5 19V17.6013C7.11741 17.4756 6.74763 17.3218 6.3931 17.1424L5.40381 18.1317C5.21627 18.3193 4.96192 18.4246 4.6967 18.4246C4.43148 18.4246 4.17713 18.3193 3.98959 18.1317L1.86827 16.0104C1.47775 15.6199 1.47775 14.9867 1.86827 14.5962L2.85756 13.6069C2.67822 13.2524 2.52443 12.8826 2.39866 12.5H1C0.447715 12.5 0 12.0523 0 11.5V8.5C0 7.94772 0.447715 7.5 1 7.5H2.39866C2.52443 7.11741 2.67822 6.74763 2.85756 6.3931L1.86827 5.40381C1.47775 5.01328 1.47775 4.38012 1.86827 3.98959L3.98959 1.86827C4.38012 1.47775 5.01328 1.47775 5.40381 1.86827L6.3931 2.85756C6.74763 2.67822 7.11741 2.52443 7.5 2.39866V1ZM9.5 2V3.16109C9.5 3.63118 9.17257 4.03781 8.7133 4.13808C8.01026 4.29157 7.35304 4.56853 6.76524 4.94563C6.36959 5.19946 5.85055 5.14345 5.51816 4.81105L4.6967 3.98959L3.98959 4.6967L4.81105 5.51816C5.14345 5.85055 5.19946 6.36959 4.94563 6.76524C4.56853 7.35304 4.29157 8.01026 4.13808 8.7133C4.03781 9.17257 3.63118 9.5 3.16109 9.5H2V10.5H3.16109C3.63118 10.5 4.03781 10.8274 4.13808 11.2867C4.29157 11.9897 4.56853 12.647 4.94563 13.2348C5.19946 13.6304 5.14345 14.1494 4.81105 14.4818L3.98959 15.3033L4.6967 16.0104L5.51816 15.1889C5.85055 14.8566 6.36959 14.8005 6.76524 15.0544C7.35304 15.4315 8.01026 15.7084 8.7133 15.8619C9.17257 15.9622 9.5 16.3688 9.5 16.8389V18H10.5V16.8389C10.5 16.3688 10.8274 15.9622 11.2867 15.8619C11.9897 15.7084 12.647 15.4315 13.2348 15.0544C13.6304 14.8005 14.1494 14.8566 14.4818 15.1889L15.3033 16.0104L16.0104 15.3033L15.1889 14.4818C14.8566 14.1494 14.8005 13.6304 15.0544 13.2348C15.4315 12.647 15.7084 11.9897 15.8619 11.2867C15.9622 10.8274 16.3688 10.5 16.8389 10.5H18V9.5H16.8389C16.3688 9.5 15.9622 9.17257 15.8619 8.7133C15.7084 8.01026 15.4315 7.35304 15.0544 6.76524C14.8005 6.36959 14.8566 5.85055 15.1889 5.51816L16.0104 4.6967L15.3033 3.98959L14.4818 4.81105C14.1494 5.14345 13.6304 5.19946 13.2348 4.94563C12.647 4.56853 11.9897 4.29157 11.2867 4.13808C10.8274 4.03781 10.5 3.63118 10.5 3.16109V2H9.5Z" fill="black"/>
<path fill-rule="evenodd" clip-rule="evenodd" d="M10 8C8.89543 8 8 8.89543 8 10C8 11.1046 8.89543 12 10 12C11.1046 12 12 11.1046 12 10C12 8.89543 11.1046 8 10 8ZM6 10C6 7.79086 7.79086 6 10 6C12.2091 6 14 7.79086 14 10C14 12.2091 12.2091 14 10 14C7.79086 14 6 12.2091 6 10Z" fill="black"/>
</svg>
