<svg width="24" height="24" viewBox="0 0 24 24" fill="none" xmlns="http://www.w3.org/2000/svg">
<path d="M6.34297 19.9474V3.34321H14.4019V6.93272C14.4019 7.30329 14.703 7.60422 15.0734 7.60422H18.6629V14.1579C19.126 14.181 19.5892 14.2737 20.0061 14.4126V6.23791C20.0061 6.05263 19.9366 5.89061 19.8208 5.7748L16.2314 2.18528C16.1156 2.06946 15.9303 2 15.7683 2H5.6715C5.30093 2 5 2.3011 5 2.6715V20.6189C5 20.9894 5.3011 21.2903 5.6715 21.2903H12.8736C12.7347 20.8736 12.6652 20.4105 12.6421 19.9473L6.34297 19.9474ZM15.7451 3.59795L18.4081 6.26102H15.7451V3.59795Z" fill="black"/>
<path d="M12.364 16.2886H9.16838C8.79782 16.2886 8.49689 16.5897 8.49689 16.9601C8.49689 17.3306 8.79799 17.6316 9.16838 17.6316L12.364 17.6317C12.7346 17.6317 13.0355 17.3306 13.0355 16.9602C13.0357 16.5897 12.7346 16.2886 12.364 16.2886V16.2886Z" fill="black"/>
<path d="M15.8377 12.9307H9.16823C8.79767 12.9307 8.49673 13.2318 8.49673 13.6022C8.49673 13.9727 8.79784 14.2737 9.16823 14.2737L15.8377 14.2738C16.2083 14.2738 16.5092 13.9727 16.5092 13.6023C16.5094 13.2318 16.2083 12.9307 15.8377 12.9307V12.9307Z" fill="black"/>
<path d="M15.8377 9.59571H9.16823C8.79767 9.59571 8.49673 9.89681 8.49673 10.2672C8.49673 10.6378 8.79784 10.9387 9.16823 10.9387L15.8377 10.9389C16.2083 10.9389 16.5092 10.6378 16.5092 10.2674C16.5094 9.8968 16.2083 9.5957 15.8377 9.5957V9.59571Z" fill="black"/>
<path d="M9.16823 7.60438H11.9008C12.2713 7.60438 12.5723 7.30328 12.5723 6.93289C12.5723 6.56232 12.2712 6.26139 11.9008 6.26139L9.16823 6.26123C8.79767 6.26123 8.49673 6.56233 8.49673 6.93273C8.49657 7.30329 8.79768 7.60439 9.16823 7.60439V7.60438Z" fill="black"/>
<path d="M18.2461 15.478C15.884 15.478 13.9851 17.3769 13.9851 19.7391C13.9851 22.1012 15.8841 24.0001 18.2461 24.0001C20.6083 24.0001 22.5072 22.1011 22.5072 19.7391C22.5072 17.3769 20.6083 15.478 18.2461 15.478ZM20.2841 19.2526L18.1072 21.4295C17.9683 21.5684 17.8061 21.6148 17.6441 21.6148C17.4819 21.6148 17.2968 21.5453 17.1809 21.4295L16.0692 20.3642C15.8145 20.1094 15.8145 19.6694 16.0692 19.4147C16.324 19.1599 16.764 19.1599 17.0188 19.4147L17.6208 20.0167L19.3345 18.303C19.5893 18.0483 20.0293 18.0483 20.2841 18.303C20.5386 18.5812 20.5386 18.9979 20.2841 19.2527V19.2526Z" fill="black"/>
</svg>
