<svg width="32" height="32" viewBox="0 0 32 32" fill="none" xmlns="http://www.w3.org/2000/svg">
    <g clip-path="url(#zxg03eezya)">
        <path d="M.996 21.563c2.26 6.093 8.125 10.435 15.005 10.435 6.88 0 12.744-4.342 15.005-10.435L16 20.172.996 21.563z" fill="#FFDA44"/>
        <path d="M16 0C9.122 0 3.258 4.342.997 10.435l15.005 1.391 15.005-1.391C28.745 4.342 22.88 0 16 0z" fill="#000"/>
        <path d="M.995 10.438A15.966 15.966 0 0 0 0 16.003c0 1.957.352 3.832.995 5.565h30.01c.643-1.733.995-3.608.995-5.565 0-1.957-.352-3.832-.995-5.566H.995z" fill="#D80027"/>
    </g>
    <defs>
        <clipPath id="zxg03eezya">
            <path fill="#fff" d="M0 0h32v32H0z"/>
        </clipPath>
    </defs>
</svg>
