<svg width="29" height="24" viewBox="0 0 29 24" fill="none" xmlns="http://www.w3.org/2000/svg">
    <path d="M3.425 20.281A11.966 11.966 0 0 0 12.11 24c3.415 0 6.498-1.428 8.683-3.719H3.424h.001zM20.794 6.762H1.312A11.933 11.933 0 0 0 .206 10.48h20.588V6.762zM20.794 3.719A11.966 11.966 0 0 0 12.11 0a11.966 11.966 0 0 0-8.683 3.719h17.367zM20.794 13.52H.206c.167 1.318.548 2.57 1.106 3.718h19.482V13.52zM22.908 6.762c.558 1.148.94 2.4 1.106 3.718h4.78V6.762h-5.886zM28.794 20.281h-8V24h8V20.28zM22.908 17.238h5.886V13.52h-4.78a11.935 11.935 0 0 1-1.106 3.718zM28.794 0h-8v3.719h8V0z" fill="#040822"/>
    <path d="M24.014 10.48a11.931 11.931 0 0 0-1.106-3.72 12.014 12.014 0 0 0-2.114-3.041v16.563a12.048 12.048 0 0 0 2.114-3.042A11.932 11.932 0 0 0 24.109 12c0-.516-.032-1.023-.095-1.522v.001z" fill="#fff"/>
</svg>
