<svg width="32" height="32" viewBox="0 0 32 32" fill="none" xmlns="http://www.w3.org/2000/svg">
    <g clip-path="url(#vjcv597j5a)" fill="#10375C">
        <path d="M16 11.001a1.25 1.25 0 1 0 0-2.5 1.25 1.25 0 0 0 0 2.5z"/>
        <path d="M29.647 6.27 17.392 1.266a3.758 3.758 0 0 0-2.784 0L2.353 6.27A3.733 3.733 0 0 0 0 9.75c0 1.541.923 2.907 2.353 3.48l12.255 5.003a3.758 3.758 0 0 0 2.784 0l12.255-5.002A3.733 3.733 0 0 0 32 9.75a3.733 3.733 0 0 0-2.353-3.482zm-.933 4.642c-.003 0-12.253 5-12.253 5-.292.117-.63.117-.922 0 0 0-12.25-5-12.253-5A1.245 1.245 0 0 1 2.5 9.75c0-.514.309-.97.786-1.161L15.54 3.587c.292-.115.63-.115.922 0L28.714 8.59c.477.19.786.647.786 1.161 0 .515-.309.97-.786 1.162z"/>
        <path d="M8.5 18.58c-.69 0-1.25.559-1.25 1.25v.422c0 1.542.925 2.909 2.357 3.482l5 2c.875.35 1.876.363 2.785 0l5-2a3.732 3.732 0 0 0 2.358-3.482v-.423a1.25 1.25 0 1 0-2.5 0v.423c0 .514-.308.97-.786 1.16l-5 2a1.266 1.266 0 0 1-.928 0l-5-2a1.244 1.244 0 0 1-.786-1.16v-.423c0-.69-.56-1.25-1.25-1.25zM29.5 26.733v-8.905a1.25 1.25 0 0 0-2.5 0v8.905l-2.134 2.133a1.25 1.25 0 0 0 1.768 1.768l1.616-1.616 1.616 1.616a1.25 1.25 0 0 0 1.768-1.768L29.5 26.733z"/>
    </g>
    <defs>
        <clipPath id="vjcv597j5a">
            <path fill="#fff" d="M0 0h32v32H0z"/>
        </clipPath>
    </defs>
</svg>
