<svg width="32" height="32" viewBox="0 0 32 32" fill="none" xmlns="http://www.w3.org/2000/svg">
    <g clip-path="url(#2jdmo9hwaa)">
        <path d="M24.5 31.997h-17c-4.136 0-7.5-3.364-7.5-7.5V13.98a7.543 7.543 0 0 1 2.952-5.963l8.5-6.483a7.518 7.518 0 0 1 9.096 0l2.702 2.059V1.997c.066-1.658 2.435-1.657 2.5 0v4.12a1.25 1.25 0 0 1-2.008.994l-4.71-3.589a5.012 5.012 0 0 0-6.064 0l-8.5 6.483A5.029 5.029 0 0 0 2.5 13.98v10.517c0 2.757 2.243 5 5 5h17c2.757 0 5-2.243 5-5V13.98c0-1.568-.727-3.06-1.946-3.989a1.25 1.25 0 1 1 1.517-1.988C30.905 9.403 32 11.637 32 13.98v10.517c0 4.136-3.364 7.5-7.5 7.5zm-11-17.562c-.863 0-1.563.7-1.563 1.562.083 2.073 3.044 2.072 3.126 0 0-.863-.7-1.562-1.563-1.562zm6.563 1.562c-.083 2.073-3.044 2.072-3.125 0 .082-2.073 3.043-2.071 3.125 0zm-5 5c-.083 2.073-3.044 2.072-3.126 0 .083-2.073 3.044-2.071 3.126 0zm5 0c-.083 2.073-3.044 2.072-3.125 0 .082-2.073 3.043-2.071 3.125 0z" fill="#10375C"/>
    </g>
    <defs>
        <clipPath id="2jdmo9hwaa">
            <path fill="#fff" d="M0 0h32v32H0z"/>
        </clipPath>
    </defs>
</svg>
