<svg width="32" height="32" viewBox="0 0 32 32" fill="none" xmlns="http://www.w3.org/2000/svg">
    <g clip-path="url(#1zoubtdr6a)" fill="#10375C">
        <path d="M26 19.75a3.754 3.754 0 0 0-3.75 3.75A3.754 3.754 0 0 0 26 27.25a3.754 3.754 0 0 0 3.75-3.75A3.754 3.754 0 0 0 26 19.75zm0 5c-.69 0-1.25-.56-1.25-1.25s.56-1.25 1.25-1.25 1.25.56 1.25 1.25-.56 1.25-1.25 1.25zM2.25 13.5v10A3.754 3.754 0 0 0 6 27.25a3.754 3.754 0 0 0 3.75-3.75v-10A3.754 3.754 0 0 0 6 9.75a3.754 3.754 0 0 0-3.75 3.75zm2.5 0c0-.69.56-1.25 1.25-1.25s1.25.56 1.25 1.25v10c0 .69-.56 1.25-1.25 1.25s-1.25-.56-1.25-1.25v-10zM30.75 29.5H1.25a1.25 1.25 0 1 0 0 2.5h29.5a1.25 1.25 0 1 0 0-2.5zM5.116 2.134l8.232 8.232A3.726 3.726 0 0 0 16 11.464c1.002 0 1.943-.39 2.652-1.098l.214-.214a1.252 1.252 0 0 1 1.768 0L25.482 15H23.5a1.25 1.25 0 1 0 0 2.5H26a3.755 3.755 0 0 0 3.75-3.75v-2.5a1.25 1.25 0 1 0-2.5 0v1.982l-4.848-4.848a3.754 3.754 0 0 0-5.304 0l-.214.214c-.236.236-.55.366-.884.366-.334 0-.648-.13-.884-.366L6.884.366a1.25 1.25 0 1 0-1.768 1.768zM16 14.75a3.754 3.754 0 0 0-3.75 3.75v5A3.754 3.754 0 0 0 16 27.25a3.754 3.754 0 0 0 3.75-3.75v-5A3.754 3.754 0 0 0 16 14.75zm1.25 8.75c0 .69-.56 1.25-1.25 1.25s-1.25-.56-1.25-1.25v-5c0-.69.56-1.25 1.25-1.25s1.25.56 1.25 1.25v5z"/>
    </g>
    <defs>
        <clipPath id="1zoubtdr6a">
            <path fill="#fff" d="M0 0h32v32H0z"/>
        </clipPath>
    </defs>
</svg>
